<svg xmlns="http://www.w3.org/2000/svg" viewBox="0 0 301.05 301.04"><defs><style>.cls-1{fill:#edf8f9;}</style></defs><g id="Layer_2" data-name="Layer 2"><g id="Layer_1-2" data-name="Layer 1"><path class="cls-1" d="M73,180.42a5,5,0,0,0-4,.18l-1.15.5a6,6,0,0,0-3.42,3.79,11,11,0,0,0-.39,2.42,8.15,8.15,0,0,1-.19,1.3,2.89,2.89,0,0,1-1.66,1.87l-.44.2a1.94,1.94,0,0,1-1.49.17,1.65,1.65,0,0,1-.78-.94,1.62,1.62,0,0,1-.15-1.22c.11-.36.5-.68,1.14-1L62,187l-1.26-2.9-1.6.69a5,5,0,0,0-2.88,2.81,5.3,5.3,0,0,0,2.65,6.1,4.92,4.92,0,0,0,4-.17l.45-.19a6.17,6.17,0,0,0,2.1-1.5,6.36,6.36,0,0,0,1.3-2.29,11.24,11.24,0,0,0,.37-2.31,8.3,8.3,0,0,1,.21-1.4A3,3,0,0,1,69.06,184l1.16-.5a1.88,1.88,0,0,1,1.48-.18,1.65,1.65,0,0,1,.79.95,1.69,1.69,0,0,1,.15,1.21,1.91,1.91,0,0,1-1.15,1l-2.39,1,1.25,2.9,2.4-1a5,5,0,0,0,2.87-2.81A5.29,5.29,0,0,0,73,180.42Z"/><path class="cls-1" d="M72.11,175l-3.22.3-1-3.48,2.91-1.41L70,167.31l-18.24,9.27.85,3L73,178.08Zm-13.67,1.35L65,173.19l.68,2.43Z"/><rect class="cls-1" x="49.68" y="164.48" width="20.07" height="3.15" transform="translate(-26.99 12.36) rotate(-9.65)"/><polygon class="cls-1" points="68.74 157.73 58.58 158.39 68.42 152.92 68.3 151.09 48.27 152.4 48.48 155.55 58.61 154.89 48.8 160.36 48.91 162.19 68.94 160.87 68.74 157.73"/><polygon class="cls-1" points="51.63 145.82 68.51 146.88 68.71 143.73 51.82 142.67 52.02 139.47 48.88 139.27 48.28 148.83 51.42 149.03 51.63 145.82"/><path class="cls-1" d="M67.87,129.17a1.71,1.71,0,0,1,0,1.22,1.8,1.8,0,0,1-.62,1.09,1.93,1.93,0,0,1-1.49,0l-2.42-.6L62.63,134l2.42.6a4.94,4.94,0,0,0,4-.49,4.67,4.67,0,0,0,1.94-3,4.86,4.86,0,0,0-.34-3.51,5.12,5.12,0,0,0-3.31-2.29l-14.92-3.68-.76,3.07,14.93,3.67A1.94,1.94,0,0,1,67.87,129.17Z"/><path class="cls-1" d="M58.05,119.36l9.92,3.9a5,5,0,0,0,4,0,5.31,5.31,0,0,0,2.44-6.19,5,5,0,0,0-3-2.71l-9.93-3.9a4.94,4.94,0,0,0-4,0,5.29,5.29,0,0,0-2.43,6.19A5,5,0,0,0,58.05,119.36Zm.08-5.08h0a1.59,1.59,0,0,1,.75-1,1.89,1.89,0,0,1,1.49.12l9.93,3.9a1.87,1.87,0,0,1,1.18.93,1.67,1.67,0,0,1-.11,1.22,1.73,1.73,0,0,1-.75,1,1.93,1.93,0,0,1-1.49-.13l-9.93-3.9A1.91,1.91,0,0,1,58,115.5,1.66,1.66,0,0,1,58.13,114.28Z"/><path class="cls-1" d="M62.9,107.58l.42.24a6,6,0,0,0,2.47.74,6.36,6.36,0,0,0,2.6-.36,10.86,10.86,0,0,0,2.06-1.13,10,10,0,0,1,1.24-.69,3,3,0,0,1,2.52.18l1.1.61c.61.35,1,.7,1,1.07a1.6,1.6,0,0,1-.27,1.2,1.64,1.64,0,0,1-.86.86,1.92,1.92,0,0,1-1.47-.31l-2.28-1.27-1.53,2.77,2.29,1.26a5,5,0,0,0,4,.56,5.32,5.32,0,0,0,3.22-5.82,5,5,0,0,0-2.6-3.07l-1.1-.61a6,6,0,0,0-5.09-.39,11.42,11.42,0,0,0-2.15,1.16,8.69,8.69,0,0,1-1.15.65,2.9,2.9,0,0,1-2.49-.17l-.43-.23a1.87,1.87,0,0,1-1-1.08,1.67,1.67,0,0,1,.26-1.19,1.63,1.63,0,0,1,.87-.86A1.88,1.88,0,0,1,66,102l1.53.85L69,100.1l-1.53-.85a5,5,0,0,0-4-.56A4.74,4.74,0,0,0,60.88,101a4.67,4.67,0,0,0-.58,3.48A5,5,0,0,0,62.9,107.58Z"/><polygon class="cls-1" points="86.71 98.71 84.16 96.85 81.12 101.02 76.63 97.75 78.73 94.87 76.18 93.01 74.08 95.89 70 92.91 73.04 88.74 70.5 86.88 65.59 93.6 81.81 105.43 86.71 98.71"/><path class="cls-1" d="M89.93,95.14l-5.84-5.51,1.1-1.17a4.66,4.66,0,0,0,1.43-3.22,4.85,4.85,0,0,0-1.75-3.62l-1.58-1.5a4.84,4.84,0,0,0-3.7-1.52,4.7,4.7,0,0,0-3.16,1.59l-3.27,3.46L87.75,97.43Zm-7-8.84-1.1,1.17-4.17-3.94,1.1-1.17a1.7,1.7,0,0,1,1.06-.62,2,2,0,0,1,1.33.68l1.59,1.5a2,2,0,0,1,.75,1.3A1.75,1.75,0,0,1,82.9,86.3Z"/><polygon class="cls-1" points="97.78 87.61 92.31 80.83 94.81 78.81 100.28 85.6 102.74 83.62 90.14 67.99 87.68 69.97 92.83 76.36 90.33 78.37 85.18 71.99 82.73 73.97 95.33 89.59 97.78 87.61"/><rect class="cls-1" x="103.09" y="60.58" width="3.15" height="20.07" transform="translate(-21.27 61.57) rotate(-29.9)"/><polygon class="cls-1" points="115.6 76.2 111.46 66.9 120 74.25 121.68 73.5 113.52 55.16 110.64 56.44 114.77 65.72 106.24 58.4 104.56 59.15 112.72 77.48 115.6 76.2"/><path class="cls-1" d="M118.77,58.76A5.91,5.91,0,0,0,120,61a6.23,6.23,0,0,0,2.1,1.57,11.15,11.15,0,0,0,2.25.66,9.27,9.27,0,0,1,1.37.38,3,3,0,0,1,1.66,1.9l.35,1.22a1.82,1.82,0,0,1,0,1.5,1.64,1.64,0,0,1-1,.66,1.74,1.74,0,0,1-1.23,0,2,2,0,0,1-.81-1.26l-.73-2.5-3,.88.73,2.51a5,5,0,0,0,2.43,3.2,5.3,5.3,0,0,0,6.39-1.86,5,5,0,0,0,.32-4l-.35-1.21a6,6,0,0,0-3.34-3.87,11.47,11.47,0,0,0-2.35-.68,11.38,11.38,0,0,1-1.27-.35,2.94,2.94,0,0,1-1.65-1.88l-.14-.47a2,2,0,0,1,0-1.5,1.73,1.73,0,0,1,1-.66,1.61,1.61,0,0,1,1.22,0,1.88,1.88,0,0,1,.82,1.26l.48,1.68,3-.89-.49-1.68a5,5,0,0,0-2.42-3.2A5.29,5.29,0,0,0,119,54.29a4.93,4.93,0,0,0-.32,4Z"/><polygon class="cls-1" points="133.24 53.02 135.91 69.72 139.02 69.22 136.35 52.52 139.52 52.02 139.02 48.9 129.56 50.41 130.06 53.53 133.24 53.02"/><rect class="cls-1" x="142.82" y="48.58" width="3.15" height="20.07" transform="translate(-3.55 9.66) rotate(-3.78)"/><polygon class="cls-1" points="151.07 68.43 154.22 68.51 154.65 51.6 157.86 51.68 157.94 48.53 148.37 48.29 148.29 51.44 151.5 51.52 151.07 68.43"/><path class="cls-1" d="M163.05,69.63a4.78,4.78,0,0,0,3.46-.66,5,5,0,0,0,2-3.49l2.33-15.19-3.12-.48L165.38,65a1.9,1.9,0,0,1-.64,1.35,1.7,1.7,0,0,1-1.21.16,1.75,1.75,0,0,1-1.14-.52,1.91,1.91,0,0,1-.18-1.48l2.33-15.19-3.12-.48L159.09,64a4.92,4.92,0,0,0,.85,3.93A4.68,4.68,0,0,0,163.05,69.63Z"/><polygon class="cls-1" points="174.89 72.11 179.59 55.85 182.67 56.74 183.55 53.72 174.35 51.06 173.47 54.09 176.56 54.98 171.86 71.23 174.89 72.11"/><polygon class="cls-1" points="186.63 76.66 187.87 73.76 183.12 71.74 185.29 66.62 188.57 68.02 189.8 65.11 186.53 63.72 188.51 59.08 193.26 61.1 194.49 58.2 186.84 54.94 178.98 73.41 186.63 76.66"/><path class="cls-1" d="M193.55,79.42a5.29,5.29,0,0,0,5.54,3.68,5,5,0,0,0,3.27-2.34l5.89-8.89a4.93,4.93,0,0,0,.88-3.93A4.62,4.62,0,0,0,207,65.13a4.67,4.67,0,0,0-3.43-.86,4.92,4.92,0,0,0-3.26,2.34l-5.89,8.89A4.9,4.9,0,0,0,193.55,79.42Zm3.51-2.18L203,68.35a1.9,1.9,0,0,1,1.15-1,2.21,2.21,0,0,1,2,1.3,1.85,1.85,0,0,1-.44,1.43L199.73,79c-.39.59-.77.9-1.15,1a1.61,1.61,0,0,1-1.17-.36,1.71,1.71,0,0,1-.79-.94,1.92,1.92,0,0,1,.44-1.43Z"/><polygon class="cls-1" points="203.48 87.81 209.16 81.19 211.88 83.53 213.93 81.14 211.21 78.8 214.5 74.97 218.41 78.33 220.47 75.94 214.16 70.52 201.09 85.75 203.48 87.81"/><polygon class="cls-1" points="223.92 83.92 225.96 86.4 212.91 97.15 214.91 99.59 227.97 88.83 230.01 91.31 232.44 89.3 226.35 81.91 223.92 83.92"/><polygon class="cls-1" points="222.04 109.98 224.7 108.28 221.92 103.94 226.6 100.94 228.52 103.93 231.18 102.23 229.26 99.23 233.51 96.51 236.29 100.86 238.95 99.16 234.46 92.16 217.56 102.98 222.04 109.98"/><path class="cls-1" d="M236.47,104.32l-9.62,4.6a5.07,5.07,0,0,0-2.77,2.92,4.81,4.81,0,0,0,.37,3.51,4.7,4.7,0,0,0,2.49,2.49,5,5,0,0,0,4-.32l2.33-1.12-1.36-2.84-2.33,1.11a1.94,1.94,0,0,1-1.47.26,1.82,1.82,0,0,1-.83-.94,1.71,1.71,0,0,1-.19-1.21,1.89,1.89,0,0,1,1.1-1l9.63-4.6a2,2,0,0,1,1.48-.23,1.78,1.78,0,0,1,.82.91,1.79,1.79,0,0,1,.2,1.24,1.92,1.92,0,0,1-1.12,1l-1.6.76,1.36,2.85,1.6-.76a5,5,0,0,0,2.78-2.91,4.7,4.7,0,0,0-.38-3.51,4.79,4.79,0,0,0-2.49-2.5A5.1,5.1,0,0,0,236.47,104.32Z"/><polygon class="cls-1" points="228.24 123.99 236.53 121.33 237.51 124.39 229.21 127.04 230.17 130.04 249.29 123.94 248.33 120.94 240.52 123.44 239.54 120.38 247.35 117.88 246.4 114.88 227.28 120.99 228.24 123.99"/><polygon class="cls-1" points="231.14 134.9 241.17 133.19 231.95 139.65 232.26 141.46 252.04 138.08 251.51 134.97 241.51 136.68 250.71 130.23 250.4 128.42 230.61 131.79 231.14 134.9"/><path class="cls-1" d="M247.76,142.56l-10.66.34a4.93,4.93,0,0,0-3.7,1.56,5.29,5.29,0,0,0,.21,6.65,5,5,0,0,0,3.8,1.31l10.66-.35a5,5,0,0,0,3.71-1.55,5.31,5.31,0,0,0-.22-6.65A5,5,0,0,0,247.76,142.56Zm1.63,5.88a1.86,1.86,0,0,1-1.42.48l-10.66.35a1.85,1.85,0,0,1-1.45-.39,1.63,1.63,0,0,1-.38-1.16,1.69,1.69,0,0,1,.31-1.19,1.93,1.93,0,0,1,1.42-.47l10.65-.35a1.92,1.92,0,0,1,1.45.38,1.65,1.65,0,0,1,.38,1.17,1.6,1.6,0,0,1-.3,1.18Z"/><polygon class="cls-1" points="231.85 162.57 234.99 162.85 235.46 157.71 252.31 159.24 252.59 156.1 232.61 154.28 231.85 162.57"/><path class="cls-1" d="M246.73,166.83l-10.42-2.29a5,5,0,0,0-4,.6,4.75,4.75,0,0,0-1.86,3,4.69,4.69,0,0,0,.44,3.5,5,5,0,0,0,3.36,2.2l10.42,2.29a5,5,0,0,0,4-.6,5.31,5.31,0,0,0,1.43-6.5A5,5,0,0,0,246.73,166.83Zm.71,5a1.61,1.61,0,0,1-.58,1.07,1.87,1.87,0,0,1-1.5.12l-10.42-2.29a1.84,1.84,0,0,1-1.3-.73,1.62,1.62,0,0,1-.09-1.22,1.71,1.71,0,0,1,.59-1.07,1.93,1.93,0,0,1,1.49-.12l10.42,2.29a1.9,1.9,0,0,1,1.31.73,1.66,1.66,0,0,1,.08,1.22Z"/><path class="cls-1" d="M243.7,179.51l-10-3.66a5.06,5.06,0,0,0-4,.05,4.81,4.81,0,0,0-2.25,2.72,4.69,4.69,0,0,0,0,3.53,5,5,0,0,0,3,2.64l6.49,2.37,1.62-4.44-3-1.09-.54,1.48-3.53-1.29a1.92,1.92,0,0,1-1.21-.87,1.8,1.8,0,0,1,.09-1.25,1.7,1.7,0,0,1,.73-1,1.93,1.93,0,0,1,1.49.09l10,3.66a1.92,1.92,0,0,1,1.2.9,1.69,1.69,0,0,1-.08,1.23,1.74,1.74,0,0,1-.74,1,1.91,1.91,0,0,1-1.48-.12l-1.67-.61-1.08,3,1.67.62a5,5,0,0,0,4-.06,4.69,4.69,0,0,0,2.24-2.72,4.78,4.78,0,0,0,0-3.53A5.07,5.07,0,0,0,243.7,179.51Z"/><polygon class="cls-1" points="224.13 186.93 222.66 189.75 228.91 193 238.66 202.47 240.2 199.52 234.82 194.27 242.18 195.71 243.72 192.76 230.38 190.18 224.13 186.93"/><path class="cls-1" d="M106.68,230.52l.9-1.47a5.1,5.1,0,0,0,.72-1.85,3.47,3.47,0,0,0-.08-1.78,4.45,4.45,0,0,0-2.06-2.47l-3.41-2.08-9.64,15.8L96.85,239a4.39,4.39,0,0,0,3.13.7,3.62,3.62,0,0,0,1.63-.74,4.94,4.94,0,0,0,1.3-1.47l.88-1.44a3.78,3.78,0,0,0,.5-3.6A3.73,3.73,0,0,0,106.68,230.52Zm-5.37,4h0l-.88,1.44a1.25,1.25,0,0,1-2.07.54l-1.26-.77,2.53-4.15,1.27.77a1.53,1.53,0,0,1,.76.84A1.77,1.77,0,0,1,101.31,234.49Zm1.86-4.57h0a1.51,1.51,0,0,1-1.09-.29l-.93-.56,2.57-4.2.92.56a1.66,1.66,0,0,1,.8.83,1.76,1.76,0,0,1-.35,1.27L104.2,229A1.83,1.83,0,0,1,103.17,229.92Z"/><path class="cls-1" d="M116.52,228.38l-5.91,12.89a1.78,1.78,0,0,1-.91,1,1.56,1.56,0,0,1-1.12-.16,1.63,1.63,0,0,1-.88-.75,1.8,1.8,0,0,1,.22-1.36l5.91-12.88-2.65-1.22-5.9,12.89a4.59,4.59,0,0,0-.25,3.7,4.89,4.89,0,0,0,5.58,2.55,4.63,4.63,0,0,0,2.64-2.6l5.91-12.88Z"/><polygon class="cls-1" points="128.17 232.6 119.78 229.84 118.87 232.6 121.68 233.53 116.81 248.35 119.58 249.26 124.45 234.44 127.26 235.36 128.17 232.6"/><path class="cls-1" d="M134.51,234l-2.89,13.88A1.82,1.82,0,0,1,131,249a1.57,1.57,0,0,1-1.13.09,1.63,1.63,0,0,1-1-.54,1.81,1.81,0,0,1-.09-1.37l2.9-13.87-2.85-.59-2.9,13.87a4.58,4.58,0,0,0,.59,3.66,4.34,4.34,0,0,0,2.78,1.69,4.41,4.41,0,0,0,3.22-.44,4.68,4.68,0,0,0,2-3.12l2.9-13.88Z"/><path class="cls-1" d="M141.63,235l-5.28,18.12,3,.26.78-2.88,3.32.28.27,3,3,.26-2.09-18.76Zm-.8,12.64,1.73-6.51.59,6.71Z"/><polygon class="cls-1" points="155.09 235.34 155.41 244.69 150.65 235.49 148.96 235.55 149.59 254.05 152.49 253.95 152.17 244.57 156.93 253.8 158.63 253.74 157.99 235.24 155.09 235.34"/><path class="cls-1" d="M174.15,244.44l-2.85.57.48,2.34a1.81,1.81,0,0,1-.1,1.37,1.69,1.69,0,0,1-1,.53,1.55,1.55,0,0,1-1.12-.1,1.73,1.73,0,0,1-.65-1.22l-2-9.64a1.77,1.77,0,0,1,.13-1.37,1.54,1.54,0,0,1,1-.53,1.63,1.63,0,0,1,1.15.09,1.77,1.77,0,0,1,.62,1.23l.33,1.6,2.85-.57-.32-1.61a4.54,4.54,0,0,0-2-3.13,4.32,4.32,0,0,0-3.22-.46,4.43,4.43,0,0,0-2.79,1.67,4.68,4.68,0,0,0-.61,3.66l2,9.64a4.67,4.67,0,0,0,2,3.13,4.42,4.42,0,0,0,3.22.46,4.32,4.32,0,0,0,2.8-1.67,4.63,4.63,0,0,0,.6-3.66Z"/><rect class="cls-1" x="175.69" y="231.63" width="2.91" height="18.5" transform="translate(-60.76 59.76) rotate(-16.39)"/><polygon class="cls-1" points="186.24 230.92 185.19 228.2 176.95 231.38 178 234.09 180.76 233.03 186.37 247.58 189.08 246.54 183.47 231.98 186.24 230.92"/><polygon class="cls-1" points="194.22 223.53 191.5 224.95 192.79 231.77 187.99 226.79 185.27 228.21 193.99 237.2 196.99 242.96 199.59 241.61 196.58 235.84 194.22 223.53"/><polygon class="cls-1" points="117.43 201.2 119.08 198.8 121.53 200.49 122.56 198.99 118.62 196.27 112.05 205.79 113.55 206.82 116.4 202.69 118.1 203.86 119.13 202.36 117.43 201.2"/><path class="cls-1" d="M126.76,201.92a2.75,2.75,0,0,0-1.37-1.51,2.72,2.72,0,0,0-2-.32,2.91,2.91,0,0,0-1.76,1.52L118.7,207a2.86,2.86,0,0,0-.3,2.3,3.08,3.08,0,0,0,3.38,1.82,2.82,2.82,0,0,0,1.75-1.51l2.93-5.41A2.9,2.9,0,0,0,126.76,201.92Zm-1.91,1.43-2.92,5.41c-.19.36-.4.56-.61.61a1.25,1.25,0,0,1-1.19-.65,1,1,0,0,1,.18-.84l2.92-5.41a1.08,1.08,0,0,1,.61-.61,1.25,1.25,0,0,1,1.19.65A1,1,0,0,1,124.85,203.35Z"/><path class="cls-1" d="M131.8,203.49l-3.27,8.23a1.07,1.07,0,0,1-.53.68,1,1,0,0,1-.7-.07,1,1,0,0,1-.57-.44,1.06,1.06,0,0,1,.09-.85l3.26-8.24-1.68-.67-3.28,8.24a2.92,2.92,0,0,0,0,2.32,2.66,2.66,0,0,0,1.54,1.33,2.69,2.69,0,0,0,2,.08,3,3,0,0,0,1.57-1.7l3.26-8.24Z"/><polygon class="cls-1" points="137.98 205.39 136.49 211.05 135.29 204.69 134.27 204.42 131.33 215.61 133.09 216.07 134.58 210.4 135.78 216.78 136.8 217.05 139.74 205.85 137.98 205.39"/><path class="cls-1" d="M143.32,206.39,140.6,206,139,217.48l2.72.37a2.68,2.68,0,0,0,2-.38,2.45,2.45,0,0,0,.77-.83,3.39,3.39,0,0,0,.36-1.17l.8-5.9a2.74,2.74,0,0,0-.53-2.24A2.64,2.64,0,0,0,143.32,206.39Zm.53,2.94h0l-.81,5.9a1,1,0,0,1-.33.74,1,1,0,0,1-.71.08l-.92-.12,1.08-7.86.91.12a1,1,0,0,1,.65.29A1.15,1.15,0,0,1,143.85,209.33Z"/><polygon class="cls-1" points="146.55 218.36 151.35 218.49 151.39 216.67 148.42 216.59 148.5 213.39 150.55 213.44 150.59 211.62 148.55 211.57 148.62 208.66 151.59 208.73 151.64 206.91 146.85 206.79 146.55 218.36"/><path class="cls-1" d="M158.17,209.27a2.72,2.72,0,0,0-1-2.07,2.68,2.68,0,0,0-2-.53l-2.74.23,1,11.53,2.74-.23a2.69,2.69,0,0,0,1.83-.81,2.31,2.31,0,0,0,.57-1,3.52,3.52,0,0,0,.09-1.21Zm-1.46,6.88a1.1,1.1,0,0,1-.68.24l-.92.07-.68-7.9.92-.08a1,1,0,0,1,.69.14,1.09,1.09,0,0,1,.32.8l.51,5.93A1,1,0,0,1,156.71,216.15Z"/><polygon class="cls-1" points="163.66 205.24 161.66 208.18 162.23 210.58 163.64 208.51 165.59 216.68 167.36 216.25 164.66 205 163.66 205.24"/><path class="cls-1" d="M172,206.89l-.45-1.3a2.84,2.84,0,0,0-1.5-1.77,2.69,2.69,0,0,0-2,0,2.75,2.75,0,0,0-1.59,1.27,2.88,2.88,0,0,0-.06,2.32l.45,1.3a2.79,2.79,0,0,0,1.5,1.77,2.69,2.69,0,0,0,2,0,3.3,3.3,0,0,0,.84-.42l.67,1.94a1,1,0,0,1,0,.86.92.92,0,0,1-.57.41,1,1,0,0,1-.71,0,1.11,1.11,0,0,1-.5-.7l-.3-.86-1.72.6.3.86a2.87,2.87,0,0,0,1.5,1.77,2.69,2.69,0,0,0,2,0,2.73,2.73,0,0,0,1.59-1.28,2.86,2.86,0,0,0,.06-2.31Zm-1.68,1.46h0a.92.92,0,0,1-.57.41,1,1,0,0,1-.71,0,1.11,1.11,0,0,1-.5-.7l-.46-1.3a1.1,1.1,0,0,1,0-.87,1,1,0,0,1,.57-.41,1,1,0,0,1,.71,0,1,1,0,0,1,.5.7l.46,1.29A1.1,1.1,0,0,1,170.28,208.35Z"/><polygon class="cls-1" points="171.03 202.84 171.81 204.48 174.69 203.1 176.85 212.88 178.54 212.07 175.97 200.47 171.03 202.84"/><polygon class="cls-1" points="178.52 198.9 177.51 202.32 178.78 204.43 179.5 202.03 183.84 209.22 185.39 208.28 179.41 198.37 178.52 198.9"/><path class="cls-1" d="M301.05,150.52c0-12.25-28.4-20.62-31.43-31.92-3.12-11.69,17.2-33.12,11.28-43.36s-34.78-3.45-43.2-11.88-1.5-37.2-11.89-43.21-31.66,14.4-43.36,11.27C171.14,28.4,162.78,0,150.52,0S129.9,28.4,118.6,31.42c-11.7,3.13-33.12-17.2-43.36-11.27s-3.45,34.78-11.88,43.2-37.2,1.5-43.21,11.88,14.4,31.67,11.27,43.36C28.4,129.9,0,138.26,0,150.52s28.4,20.62,31.42,31.92c3.13,11.7-17.2,33.12-11.27,43.36s34.78,3.45,43.2,11.88,1.5,37.2,11.88,43.21,31.67-14.4,43.36-11.27c11.31,3,19.67,31.42,31.93,31.42s20.62-28.4,31.92-31.42c11.7-3.13,33.12,17.2,43.36,11.27s3.45-34.77,11.88-43.2,37.2-1.5,43.21-11.88-14.4-31.66-11.27-43.36C272.64,171.15,301.05,162.78,301.05,150.52ZM150.52,263.62h0a113.1,113.1,0,1,1,113.1-113.1A113.23,113.23,0,0,1,150.52,263.62Z"/><path class="cls-1" d="M150.52,73.7a76.82,76.82,0,1,0,76.82,76.82A76.92,76.92,0,0,0,150.52,73.7Zm0,151.77a75,75,0,1,1,74.95-74.95A75,75,0,0,1,150.52,225.47Z"/><path class="cls-1" d="M206.42,224.06a2.82,2.82,0,1,0,2.81,2.82h0A2.82,2.82,0,0,0,206.42,224.06Z"/><path class="cls-1" d="M85.85,224.06A2.81,2.81,0,0,0,83,226.88h0a2.81,2.81,0,0,0,2.81,2.81h0a2.82,2.82,0,0,0,0-5.63Z"/><path class="cls-1" d="M183,132.48H162.56a.55.55,0,0,1-.17-.2,3,3,0,0,0-.88-1.12c0-.27-.32-.33-.43-.53a1,1,0,0,0-.23-.26,10,10,0,0,1-.74-.71c-.16-.14-.32-.31-.48-.44a4,4,0,0,1-.78-.59s-.19,0-.14-.16.08-.19.17-.2.3-.22.46-.31.26-.09.36-.2a1.24,1.24,0,0,1,.44-.35,1,1,0,0,0,.17-.1,2,2,0,0,1,.58-.45c.16-.07.23-.21.37-.29a3.19,3.19,0,0,0,.4-.33A2.45,2.45,0,0,0,162,126c.25-.26.53-.48.8-.72s.41-.26.58-.44a6,6,0,0,1,.64-.59c.11-.09.26-.1.35-.2a1.6,1.6,0,0,1,.71-.55s.08,0,.1,0c.08-.21.29-.23.45-.33s.12,0,.13-.06.1-.14.2-.13a.35.35,0,0,0,.18-.06l.57-.32a2,2,0,0,1,.78-.24.07.07,0,0,0,.06,0c0-.17.19-.14.31-.15s.3,0,.42,0a.82.82,0,0,1,.55-.14,1.68,1.68,0,0,0,.63,0,2.17,2.17,0,0,1,.91-.14,17.48,17.48,0,0,0,2-.07,8.94,8.94,0,0,1,1.37-.11,21,21,0,0,0,2.38-.22c.19,0,.3-.2.49-.16.42.08.73-.29,1.13-.26,0,0,.06,0,.1-.06a7.81,7.81,0,0,1,.81-.29c.11,0,.2-.16.3-.18a3.15,3.15,0,0,0,.83-.39,6.67,6.67,0,0,1,.8-.5,8.14,8.14,0,0,0,.63-.54,6.25,6.25,0,0,0,.45-.44,3.27,3.27,0,0,0,.35-.48,1.41,1.41,0,0,0,.26-.42c0-.2.29-.31.22-.55,0,0,0,0,0,0,.21,0,.14-.17.14-.28a.31.31,0,0,1,.06-.21c.18-.16.13-.36.13-.55s0-.25,0-.37a13.19,13.19,0,0,0,0-1.66s0,0,0,0c-.29-.17,0-.6-.35-.76,0,0,0-.05,0-.07a1.09,1.09,0,0,0-.11-.27c-.08-.19-.25-.33-.29-.52a.67.67,0,0,0-.28-.36,4.56,4.56,0,0,0-.48-.5,1.3,1.3,0,0,1-.22-.19,1.26,1.26,0,0,0-.36-.33c-.16-.09-.28-.25-.44-.31s-.33-.22-.53-.3a3.28,3.28,0,0,1-.58-.25.55.55,0,0,0-.35-.12.29.29,0,0,1-.26-.11s0-.08-.11-.07a10,10,0,0,1-1.09-.2,12.17,12.17,0,0,0-2.56,0,9,9,0,0,1-1,.15c-.06,0-.15,0-.17.05-.14.22-.35.16-.54.17s-.2,0-.22,0-.27.13-.42.15-.17,0-.19,0-.2.15-.32.16-.23,0-.26.14a.08.08,0,0,1-.09,0c-.27,0-.44.24-.7.24,0,0,0,.05-.08.06-.21.06-.36.26-.57.3s-.31.26-.53.21c0,.28-.44.07-.47.36a.64.64,0,0,0-.45.23c-.12.12-.31.13-.42.21s-.32.38-.6.38a.08.08,0,0,0-.05.05c0,.19-.14.13-.23.12s-.26.06-.34,0-.28-.25-.4-.38a6.44,6.44,0,0,0-.69-.6c-.16-.14-.31-.3-.48-.43a2.11,2.11,0,0,1-.36-.31c-.12-.16-.32-.2-.46-.34a1.91,1.91,0,0,0-.48-.42c-.3-.13-.51-.38-.8-.53a3.6,3.6,0,0,0-.54-.31.19.19,0,0,1-.11-.07,1,1,0,0,0-.47-.3c-.19,0-.3-.26-.52-.21,0,0,0,0,0-.06s-.08-.09-.15-.12-.16,0-.22-.06a1.87,1.87,0,0,0-.74-.35c-.05,0-.1,0-.13,0-.18-.25-.5-.21-.73-.3a5,5,0,0,0-.82-.29,3,3,0,0,0-.73-.18l0,0c-.3-.19-.67-.14-1-.3s-.41,0-.54-.08a.86.86,0,0,0-.62-.16.57.57,0,0,1-.36-.07.56.56,0,0,0-.43-.12,1,1,0,0,1-.55-.06.9.9,0,0,0-.6-.12c-.17,0-.21,0-.21-.21a15.47,15.47,0,0,0,0-1.67c-.06-.24-.12-.47-.2-.7a2.76,2.76,0,0,0-.33-.77,2.83,2.83,0,0,0-.47-.71,2.42,2.42,0,0,1-.25-.31c-.09-.14-.24-.2-.34-.3a2.34,2.34,0,0,0-.32-.31c-.13-.09-.29-.14-.42-.24a1.54,1.54,0,0,0-.49-.3c-.28,0-.5-.28-.8-.25a.11.11,0,0,1-.08,0c-.06-.14-.17-.1-.28-.11a2.17,2.17,0,0,1-1-.16.24.24,0,0,0-.34.06h0a.34.34,0,0,1-.36.09c-.29-.09-.56,0-.84,0a.12.12,0,0,0-.08,0c-.1.2-.27.12-.42.14s-.19,0-.2,0c-.05.28-.45,0-.51.34a1.18,1.18,0,0,1-.4.17,1.39,1.39,0,0,0-.68.49,2.47,2.47,0,0,0-.5.52c-.13.27-.54.36-.54.75,0,0-.05.06-.09.06s-.08,0-.08.11,0,.25-.14.3,0,.11-.05.17,0,.15,0,.18c-.26.19-.21.46-.21.72,0,.09,0,.23,0,.25s-.11.26-.11.39,0,.52,0,.78c0,.06,0,.15,0,.18s.17.2.1.23-.15.22-.2.21a2.42,2.42,0,0,0-.91.21h0c-.15,0-.36-.09-.42.17a1.09,1.09,0,0,1-.15,0c-.13,0-.33,0-.36.05s-.22.1-.34.14a4.79,4.79,0,0,1-.73.24s0,0,0,0c-.12.26-.51,0-.61.34-.21,0-.38.14-.55.16s-.4.3-.67.27a0,0,0,0,0,0,0c-.1.22-.43.06-.52.31-.26-.05-.37.34-.65.25,0,.22-.24.17-.39.2a.09.09,0,0,0-.06.06c0,.12-.07.11-.16.12s-.17,0-.19.06c-.15.3-.49.34-.73.47a5.21,5.21,0,0,0-.56.34,4.84,4.84,0,0,0-.79.47,1.34,1.34,0,0,1-.5.23c-.19.06-.34.23-.56.23,0,0,0,0,0,.06s-.1.12-.18.12-.23,0-.26.13-.09.06-.14,0c-.28,0-.47.29-.77.2,0,0,0,.06,0,.1s0,.1-.1.08c-.32-.08-.54.19-.85.23a2.73,2.73,0,0,0-.78.25c0,.17-.16.13-.27.14a2.92,2.92,0,0,0-.93.26c-.1.21-.27.13-.41,0-.3-.15-.64-.18-.94-.31-.09,0-.3-.18-.35-.19a6.06,6.06,0,0,1-1.25-.47c0-.16-.13-.14-.23-.14s-.33-.19-.43-.19-1.28-.85-1.63-1.06a1,1,0,0,1-.27-.18c-.09-.12-.2-.22-.3-.33s-.36-.38-.53-.58a6.38,6.38,0,0,1-.6-.84,3,3,0,0,1-.56-1.08s0,0,0-.08-.21-.77,0-.9.09-.39.3-.47c0-.28.23-.43.3-.67s.2-.49.29-.74.26-.4.24-.65c0,0,0-.06.08-.08a.15.15,0,0,0,.08-.15c0-.38.26-.71.23-1.1,0,0,0-.06,0-.07.24-.16.18-.42.17-.61a5.8,5.8,0,0,0-.2-2.38c-.11-.22,0-.53-.19-.75s0-.26,0-.33c-.26-.2,0-.6-.34-.76.07-.3-.2-.52-.2-.8s-.18-.29-.18-.43c0-.32-.34-.53-.26-.87a0,0,0,0,0,0,0,.44.44,0,0,1-.16-.45.15.15,0,0,0-.06-.15.44.44,0,0,1-.13-.38c0-.07,0-.17,0-.2-.29-.2-.24-.56-.32-.82a3.53,3.53,0,0,1-.27-1c0-.1,0-.22,0-.28s-.14-.3-.14-.46,0-.14,0-.2a.72.72,0,0,1-.16-.6.36.36,0,0,0,0-.22,1.2,1.2,0,0,1-.14-.72c0-.08,0-.18,0-.24s-.11-.31-.15-.48c-.07-.36.06-.87-.55-.93,0,0,0,0,0,0a1.83,1.83,0,0,0-.92-.15.1.1,0,0,0-.08,0c-.09.25-.47.32-.41.67a.09.09,0,0,1-.08.08c-.08,0-.1,0-.11.11a.39.39,0,0,1-.11.22,1.18,1.18,0,0,0-.25.4,2.22,2.22,0,0,1-.28.58.91.91,0,0,0-.17.42l0,0c-.18,0-.15.17-.15.29s-.12.12-.22.13-.17,0-.16-.14c.06-.44-.23-.83-.21-1.26,0-.23-.14-.4-.16-.62a.59.59,0,0,0-.55-.54,3.16,3.16,0,0,1-1-.14c.11.32-.32.4-.25.69,0,0,0,0,0,0s-.13.08-.15.17a2.13,2.13,0,0,1-.3.58,4,4,0,0,0-.49,1,.22.22,0,0,1,0,.08c-.14,0-.13.16-.14.26s0,.11,0,.13-.16.22-.19.35-.26.35-.2.6l-.05,0c-.14,0-.11.13-.13.21s0,.15,0,.16c-.22.06-.14.24-.16.39s0,.13,0,.15-.14.23-.15.37,0,.16-.07.19-.11.24-.12.37,0,.26-.14.31,0,.06,0,.1a3.44,3.44,0,0,1-.19.83c-.14.25,0,.56-.17.85a2.65,2.65,0,0,0-.06,1.12c0,.07,0,.15,0,.21a.73.73,0,0,0-.16.6,11.92,11.92,0,0,0,.15,1.69c.1.58.21,1.17.26,1.76,0,.19.16.3.15.48,0,.35.33.6.25,1,0,0,0,0,.05,0a.2.2,0,0,1,.13.24c0,.27.28.44.2.72a0,0,0,0,0,0,0c.19,0,.13.15.18.24s.14.38.23.56.09.31.21.4.21.36.29.53.28.32.29.56c0,.07.2.11.12.23s-.19,0-.29,0h-.18s-.09,0-.09.06,0,.14-.15.13a.08.08,0,0,0-.08.06v0c0,.16,0,.34.14.46a.27.27,0,0,1,.1.24c0,.28.26.49.21.78h0a.32.32,0,0,1,.14.35c0,.07,0,.18,0,.2.2,0,.12.22.17.33a1.89,1.89,0,0,0,.06.18c.1.24.22.49.33.74s.27.31.22.54a0,0,0,0,0,0,0c.14,0,.14.15.14.27s0,.11.07.13.11.1.11.2,0,.14,0,.14.15.17.17.26a1,1,0,0,0,.24.38c.15.13.09.42.35.46.1.43.46.68.68,1a4.13,4.13,0,0,0,.47.55c.22.22.43.48.66.69a3.44,3.44,0,0,0,.84.68c.1,0,.26.11.31.2s.33.19.47.31.41.18.58.3a2.31,2.31,0,0,0,.55.26c.23.09.42.29.69.27a.05.05,0,0,1,0,0c.11.24.38.23.57.3s.41.28.67.27a.15.15,0,0,1,.1,0c0,.17.2.11.3.16s.11,0,.13,0c.16.2.4.21.61.3s.32.32.57.25l0,.06a.21.21,0,0,0,.23.12s.12,0,.14,0,.14.13.24.14.12,0,.14,0,.15.15.25.2a6.41,6.41,0,0,1,.7.45c.18.12.35.31.53.45l.74.6c.09.08.12.19.22.24a1.32,1.32,0,0,1,.5.44c.19.27.48.44.67.72s.4.34.58.57a5.09,5.09,0,0,0,.63.6,5.57,5.57,0,0,0,.84.7,2.93,2.93,0,0,1,.42.37c.12.12.27.21.38.33s.44.28.6.47a8.35,8.35,0,0,0,.88.69,1,1,0,0,0,.25.2,3.82,3.82,0,0,1,.75.51,2.78,2.78,0,0,0,.47.28c.18.08.32.21.49.28s.28.08.32.15c.13.24.38.25.57.35s.35.27.59.25a.1.1,0,0,1,.05.06c0,.12.08.12.16.11s.36.28.61.22c0,0,0,0,0,.06s.1.1.19.1.15,0,.16,0c.11.32.45.2.67.34s.69.24,1,.43c.15.08.36.11.54.21s.19,0,.15.1.09.21-.1.3a2.45,2.45,0,0,0-.46.45l-.33.34c-.08.09-.26.19-.26.22,0,.2-.22.22-.27.39s-.09.3-.18.34c-.29.15-.38.44-.54.67a1.75,1.75,0,0,0-.29.47,1.24,1.24,0,0,1-.1.2H116.25a6.51,6.51,0,1,0,5.48,10v2.44h3.74v48.88l1,.58a40.21,40.21,0,0,0,4.34,2.08l2.82,1.17v-.1l.28.09c1.39.47,2.83.87,4.31,1.22l1.4.33h0l.1,0,1,.24v-.06l.58.1q2.1.36,4.29.57l1.12.1v0l.38,0,.73.06v0l.85,0,.56,0c.57,0,1.14,0,1.72,0s.94,0,1.4,0l.6,0,.86,0v0l.78-.07H155v0l1.11-.1c1.46-.13,2.89-.31,4.28-.55l.6-.1v.06l1-.24h.06l1.39-.32c1.48-.34,2.91-.74,4.3-1.2l.3-.1v.11l2.81-1.15a40.54,40.54,0,0,0,4.33-2l1.07-.58V144.92h2.08V143.5a6.51,6.51,0,1,0,4.69-11Zm-7.59-20.58c.26,0,.52,0,.88,0a4,4,0,0,1,1.29.15,9.56,9.56,0,0,1,1,.39c.18.06.31.24.53.23s.08.14.18.2a1.64,1.64,0,0,1,.67.66l.08.1a2.14,2.14,0,0,1,.49,1.12c0,.35,0,.7,0,1,0,.09,0,.2-.11.22s-.06,0-.06,0c0,.2-.11.32-.2.48a2.12,2.12,0,0,1-.55.68c-.09.06-.25.12-.27.29s-.2.2-.26.2c-.24,0-.36.3-.61.29,0,0-.1,0-.1.07s-.09.12-.18.12-.21,0-.22.13a.06.06,0,0,1,0,0c-.3-.08-.5.29-.81.2a.17.17,0,0,0-.1,0c-.17.26-.48.1-.67.22-.37.22-.78.1-1.16.2H175c-.08,0-.16,0-.16-.11s.09-.08.16-.08a.33.33,0,0,0,.27-.07.65.65,0,0,1,.46-.18,1.4,1.4,0,0,0,.43-.2,4.78,4.78,0,0,0,.61-.28,1.44,1.44,0,0,1,.48-.28c.16,0,.27-.17.4-.25a1.71,1.71,0,0,0,.47-.37c.08-.1.27-.12.26-.31s.16-.07.22-.17.27-.49.41-.72a2.06,2.06,0,0,0,.16-1.36c0-.12,0-.27,0-.34-.2-.26-.29-.58-.52-.83a3.09,3.09,0,0,0-.67-.52,3.71,3.71,0,0,0-.56-.29,5.09,5.09,0,0,1-.77-.19,2.72,2.72,0,0,0-1.23-.15c-.19,0-.14-.11-.16-.21S175.3,111.9,175.44,111.9Zm-4.64,3.55h0a5.09,5.09,0,0,0,1-.26,5.87,5.87,0,0,1,1.65-.36c.23,0,.43-.14.67-.15l.8,0a2,2,0,0,1,1.14.18.31.31,0,0,0,.19,0c.24-.06.35.17.53.23a.06.06,0,0,1,0,.09,0,0,0,0,1,0,0c-.21.11-.32.34-.51.48a.53.53,0,0,1-.35.17c-.06,0-.08,0-.08.09s0,.09-.06.09-.33,0-.41.2c-.29-.07-.49.16-.72.25s-.62.06-.88.29-.37,0-.55.06-.17,0-.18.12-.15.08-.23.08h-.48a.27.27,0,0,0-.26.11c-.1.13-.28.08-.44,0s-.29,0-.34-.23-.17-.24-.25-.36-.12-.14-.12-.25,0-.08,0-.08c-.25,0-.17-.3-.32-.42S170.58,115.48,170.8,115.45ZM158.9,131.9c.11.08.2.19.32.27s.12.2.26.25,0,0,0,.07H139.82s0,0,0,0a.55.55,0,0,1,.14-.32,4.18,4.18,0,0,0,.5-.53.46.46,0,0,1,.28-.25c.12,0,.18-.16.22-.22.17-.26.47-.38.62-.6s.61-.4.81-.72c0,0,.1,0,.15,0H156c.08,0,.18,0,.18.11s.06.05.09.06a2.64,2.64,0,0,1,.79.43,3.68,3.68,0,0,1,.82.6c.22.23.5.36.72.58A2.61,2.61,0,0,0,158.9,131.9Zm-13-27.34h0c0-.07,0-.14.1-.16s.09,0,.08-.07c0-.28.23-.42.36-.62a.44.44,0,0,1,.13-.14,3.88,3.88,0,0,1,.58-.42c.11-.05.2-.14.34-.11h.09a3.18,3.18,0,0,1,1.88-.15,1.44,1.44,0,0,1,.92.37c.23.22.52.35.68.68a6.15,6.15,0,0,1,.4.95,3.35,3.35,0,0,1,.12.89c0,.28,0,.3-.31.3l-1.39,0h-3.63c-.36,0-.39,0-.39-.39A10.29,10.29,0,0,1,145.94,104.56Zm-10.37,7.91h0a3.84,3.84,0,0,0,.59-.33c.14-.07.28-.16.42-.22s.43-.25.65-.37.3-.26.51-.26c.06,0,.12,0,.12-.07s.09-.12.17-.12.18,0,.2-.12,0-.07.06-.07c.25,0,.43-.16.62-.26s.46,0,.53-.32l0,0c.25.08.38-.18.6-.2a.26.26,0,0,0,.22-.09.31.31,0,0,1,.27-.1c.1,0,.23,0,.25-.14s0-.05.06,0c.26,0,.44-.18.69-.22a3.52,3.52,0,0,0,.78-.24,4.19,4.19,0,0,1,1.3-.36.18.18,0,0,0,.11,0,.46.46,0,0,1,.45-.15.6.6,0,0,0,.5-.14.29.29,0,0,1,.22,0h7.73s.07,0,.09,0c.36.25.79.12,1.17.23a8,8,0,0,0,1,.16l1,.21a6.84,6.84,0,0,1,.86.23,4,4,0,0,1,.9.26s.09,0,.13,0c.2.08.46,0,.6.21,0,0,.12,0,.18,0a.33.33,0,0,1,.32.13.1.1,0,0,0,.1,0c.19,0,.34.13.49.14a2.17,2.17,0,0,1,.73.32c.15.07.4.05.5.28,0,0,.11,0,.17,0s.23,0,.24.17,0,0,.07,0c.25,0,.36.23.56.3s.51.43.85.5c.1,0,.14.13.17.17s.4.18.48.4,0,.21-.14.19a10.16,10.16,0,0,0-1.56,0c-1.52,0-3,0-4.54,0H135.58c-.07,0-.08,0-.08-.09S135.5,112.49,135.57,112.47ZM117.36,93.68h0a2.94,2.94,0,0,1,.39-1.07c0-.08,0-.21.06-.27s.11-.32.18-.45a7.84,7.84,0,0,0,.41-.82c0-.1.19-.06.25-.15a.58.58,0,0,1,.08.22,2.88,2.88,0,0,0,.18.7c.09.3.16.61.23.91s0,.35.14.5a.43.43,0,0,1,.06.27.48.48,0,0,0,.14.42c.07.07,0,.15.05.22a6.29,6.29,0,0,0,.36,1s0,.12,0,.18,0,.35.21.43c.05,0,0,.12,0,.18a.35.35,0,0,0,.09.28.4.4,0,0,1,.1.33c0,.06,0,.12.06.16a.19.19,0,0,1,.09.16,3.08,3.08,0,0,0,.3.9c.08.25,0,.55.28.74a.49.49,0,0,1,0,.14c0,.16,0,.35.17.48a.26.26,0,0,1,.06.21,5.08,5.08,0,0,0,.17,1.17,2.09,2.09,0,0,1,0,.56.44.44,0,0,0,0,.32.27.27,0,0,1,0,.31c-.2.2-.11.43-.13.65s0,.21-.14.28-.1.24-.1.38,0,.29-.13.38a.05.05,0,0,0,0,0c0,.26-.23.43-.23.68a.2.2,0,0,1-.1.2.18.18,0,0,0-.08.18c0,.12,0,.24-.14.29a.08.08,0,0,0,0,.07c.06.35-.3.43-.43.66a.07.07,0,0,1-.08,0,4.09,4.09,0,0,0-.7,0,.2.2,0,0,1-.18-.12,2.14,2.14,0,0,0-.26-.43c-.12-.12-.07-.23-.1-.33s0-.3.11-.41a.32.32,0,0,0,.08-.28c0-.09,0-.17.11-.19s.07,0,.07-.07c-.1-.34.24-.59.2-.92a1,1,0,0,1,.11-.57.44.44,0,0,0,.07-.22,9.55,9.55,0,0,0,0-1.69,8.85,8.85,0,0,1-.16-.87c0-.23-.22-.43-.18-.69-.3-.16-.09-.55-.35-.74,0,0,0-.17,0-.25a2.91,2.91,0,0,0-.26-.77c-.17-.24-.06-.56-.32-.75,0,0,0-.14,0-.22a.36.36,0,0,0-.12-.27s-.08,0-.07-.08c.08-.33-.2-.55-.24-.84a8.33,8.33,0,0,0-.22-.86C117.29,93.87,117.35,93.79,117.36,93.68Zm-.68,3.67h0a.43.43,0,0,1,.11.28.29.29,0,0,0,.11.29c.08,0,.07.14.08.21s0,.3.16.39,0,.26.08.38c.2.29.1.68.31,1,0,0,0,.15,0,.23a10.49,10.49,0,0,1,0,2.17c0,.06,0,.14-.08.14s-.06-.07-.08-.12a1.5,1.5,0,0,1-.23-.74c-.32-.21-.08-.61-.31-.86a.27.27,0,0,1-.07-.2,2.48,2.48,0,0,0-.14-.89,5.39,5.39,0,0,1,0-1.33A2.28,2.28,0,0,1,116.68,97.35Zm-1.48,8.53c-.19-.34-.4-.67-.6-1-.1-.16-.07-.42-.31-.5,0,0,0-.08,0-.13s0-.22-.14-.23,0,0,0-.05c-.07-.44-.39-.8-.44-1.25-.28-.15-.2-.48-.29-.71a3.28,3.28,0,0,1-.27-1c0-.21,0-.43-.16-.58a.2.2,0,0,1,0-.11c0-.35,0-.69,0-1a2.91,2.91,0,0,0-.06-.65,1.78,1.78,0,0,1,0-.65,12.26,12.26,0,0,0,.1-1.48.46.46,0,0,1,.14-.42c.07,0,.06-.17,0-.27a.87.87,0,0,1,.17-.68s0-.14,0-.2,0-.3.14-.4a.06.06,0,0,0,0-.06c-.1-.37.3-.62.26-1,.21-.16.12-.45.28-.63a.32.32,0,0,0,.09-.24c0-.11,0-.21.14-.23h0c0-.24.17-.38.21-.59s0-.18.12-.22.06-.14.07-.22,0-.12.1-.14.1,0,.13.1A1.77,1.77,0,0,1,115,92c0,.31.16.61.22.92s.14.36.18.56c.09.44-.07.87,0,1.3,0,0,0,.12,0,.13-.23,0-.2.27-.19.39a6,6,0,0,1-.19,1.12,1.23,1.23,0,0,1,0,.19c0,.92,0,1.85,0,2.78a2.2,2.2,0,0,0,.06.72c.14.32.06.7.2,1s.06.52.18.66.06.64.33.86c.06.05,0,.14,0,.2s0,.2.12.21a.06.06,0,0,1,.06.06,1.28,1.28,0,0,0,.19.6,2.36,2.36,0,0,0,.4.75c.11.11,0,.32,0,.44v.35c0,.07,0,.17-.1.16s-.08,0-.09.11a1,1,0,0,1-.2.43l0,0A1.51,1.51,0,0,1,115.2,105.88Zm24,20.4h0a4.56,4.56,0,0,1-.81-.28c-.17-.05-.42-.07-.54-.27a.05.05,0,0,0,0,0c-.25,0-.4-.24-.64-.25a.87.87,0,0,1-.43-.21c-.28-.2-.6-.33-.89-.5s-.55-.33-.83-.48a1.93,1.93,0,0,1-.7-.49c-.08-.11-.27-.15-.4-.25s-.51-.39-.77-.58-.41-.41-.64-.55-.39-.38-.66-.49a.61.61,0,0,1-.25-.23c-.1-.14-.25-.21-.34-.33s-.25-.16-.29-.31-.17-.18-.26-.25c-.36-.29-.66-.64-1-1s-.75-.74-1.15-1.09a6.26,6.26,0,0,1-.53-.5c-.15-.16-.34-.3-.5-.45a5.09,5.09,0,0,0-.47-.34,3.36,3.36,0,0,0-.71-.47l-.45-.29a6.05,6.05,0,0,1-.55-.32c-.16-.12-.4-.09-.49-.3s-.11-.06-.17,0-.17,0-.21-.11,0-.07,0-.07c-.17,0-.29-.13-.42-.18a6,6,0,0,0-1.15-.45c-.12-.25-.46-.1-.58-.35,0,0-.08,0-.13,0s-.21,0-.25-.12,0-.06,0,0c-.28.07-.42-.21-.66-.28s-.44-.2-.65-.26-.55-.4-.89-.5a.56.56,0,0,1-.33-.29.61.61,0,0,0-.3-.23c-.32-.14-.43-.45-.67-.66s-.33-.43-.53-.61a1.9,1.9,0,0,1-.3-.44,1.91,1.91,0,0,0-.5-.72s0-.08,0-.13,0-.22-.14-.25a.07.07,0,0,1,0,0c0-.39-.42-.65-.44-1.05-.22-.1-.09-.4-.3-.52s0-.12.08-.12c.39,0,.74-.22,1.14-.2a1.31,1.31,0,0,0,.77-.15.45.45,0,0,1,.23,0,3.27,3.27,0,0,0,.54,0c.3-.07.43.06.54.39a5.36,5.36,0,0,0,.28.53,3.6,3.6,0,0,1,.31.54c0,.15.2.15.24.33a1.2,1.2,0,0,0,.38.56c.18.18.33.38.5.57a5.22,5.22,0,0,0,1,.87c.09.06.2.2.29.27s.19.25.36.28a2.15,2.15,0,0,1,.46.33c.12.09.27.13.4.22s.27.12.37.22.48.16.63.38h0c.26-.08.38.23.63.21s.16.2.33.2a2.64,2.64,0,0,1,.68.25c.16,0,.41.07.5.17s.51.09.68.3a.18.18,0,0,0,.17.06.37.37,0,0,1,.37.13.11.11,0,0,0,.09,0,10,10,0,0,0,1.35.24c4.27,0,8.54,0,12.82,0h24.89a.47.47,0,0,1,.52.42h0c0,.17.15.24.22.34.23.31.38.67.6,1s.37.64.58.93.25.53.49.7c0,0,.05.05.05.07,0,.24.24.31.3.51,0,0,.11.09.07.17s-.12,0-.19,0h-.14c-.16,0-.34-.06-.45.14a.3.3,0,0,1-.22,0,2,2,0,0,0-.6,0c-.13,0-.27,0-.33.13s-.1,0-.15,0c-.24.06-.54-.14-.7.18,0,0-.11,0-.16,0a.51.51,0,0,0-.39.15c-.09.11-.24,0-.36.08s-.47.11-.6.36c0,0-.1,0-.15,0s-.23,0-.24.13a.07.07,0,0,1,0,0c-.24-.08-.35.19-.55.21s-.21.25-.39.26c0,.14-.1.1-.18.12a.87.87,0,0,0-.44.36c-.06.1-.19.06-.27.14a4.27,4.27,0,0,1-.44.3c-.08,0-.09.14-.17.21s-.53.24-.68.53a.59.59,0,0,1-.32.26c-.09,0-.14.14-.22.21-.25.21-.54.37-.77.6-.08.08-.21.14-.26.28a.44.44,0,0,1-.28.22c-.28.09-.42.35-.66.49s-.33.32-.58.37c-.06,0-.13.14-.17.2-.19.23-.55.22-.69.52-.05.1-.27.07-.4.2s-.5.28-.7.46-.51.25-.68.5-.3.08-.47.08H142.5a4,4,0,0,1-1.23-.22c-.12,0-.28,0-.35-.16h0c-.33,0-.57-.25-.89-.23-.06,0-.12,0-.15,0a.3.3,0,0,0-.32-.14C139.35,126.46,139.28,126.29,139.19,126.28Zm-7.54,68.29a40.11,40.11,0,0,1-4.13-2V146h4.13Zm7.1,2.28c-1.42-.34-2.8-.72-4.13-1.17V146h4.13Zm7.1,1.16c-1.41-.14-2.78-.32-4.13-.56V146h4.13Zm5.16.26c-.74,0-1.46,0-2.2-.07V146h4.13v52.23C152.3,198.23,151.67,198.27,151,198.27Zm9-.77c-1.35.23-2.73.4-4.13.53V146h4.13Zm7.1-1.73c-1.34.43-2.71.81-4.13,1.14V146h4.13Zm7.1-3a39.63,39.63,0,0,1-4.13,1.92V146h4.13Zm-50.48-49.88v-2.61h52.54l0,2.61Zm59.26.58h0a4.42,4.42,0,0,1-4-6.34H120.28a4.45,4.45,0,1,1-4-2.6H183a4.47,4.47,0,1,1,0,8.93Z"/></g></g></svg>